# Rhino

v -106.05548095703125 42.018177032470703 0
v -106.05548095703125 42.018177032470703 0.20000000298023224
v -36.995311737060547 42.018177032470703 0
v -36.995311737060547 42.018177032470703 0.20000000298023224
v -36.995311737060547 42.018177032470703 0
v -36.995311737060547 42.018177032470703 0.20000000298023224
v -36.995311737060547 81.1087646484375 0
v -36.995311737060547 81.1087646484375 0.20000000298023224
v -36.995311737060547 81.1087646484375 0
v -36.995311737060547 81.1087646484375 0.20000000298023224
v -106.05548095703125 81.1087646484375 0
v -106.05548095703125 81.1087646484375 0.20000000298023224
v -106.05548095703125 81.1087646484375 0
v -106.05548095703125 81.1087646484375 0.20000000298023224
v -106.05548095703125 42.018177032470703 0
v -106.05548095703125 42.018177032470703 0.20000000298023224
v -106.05548095703125 42.018177032470703 0
v -36.995311737060547 42.018177032470703 0
v -36.995311737060547 81.1087646484375 0
v -106.05548095703125 81.1087646484375 0
v -106.05548095703125 42.018177032470703 0.20000000298023224
v -36.995311737060547 42.018177032470703 0.20000000298023224
v -36.995311737060547 81.1087646484375 0.20000000298023224
v -106.05548095703125 81.1087646484375 0.20000000298023224
vt 0 0
vt 0 0.50127553939819336
vt 0.3256533145904541 0
vt 0.3256533145904541 0.50127553939819336
vt 0.3256533145904541 0
vt 0.3256533145904541 0.50127553939819336
vt 0.5 0
vt 0.5 0.50127553939819336
vt 0.5 0
vt 0.5 0.50127553939819336
vt 0.8256533145904541 0
vt 0.8256533145904541 0.50127553939819336
vt 0.8256533145904541 0
vt 0.8256533145904541 0.50127553939819336
vt 1 0
vt 1 0.50127553939819336
vt 0 1
vt 0.3192773163318634 1
vt 0.3192773163318634 0.50127607583999634
vt 0 0.50127607583999634
vt 0.68072271347045898 0.50127607583999634
vt 1 0.50127607583999634
vt 1 1
vt 0.68072271347045898 1
vn 0 -1 0
vn 0 -1 0
vn 0 -1 0
vn 0 -1 0
vn 1 0 0
vn 1 0 0
vn 1 0 0
vn 1 0 0
vn 0 1 0
vn 0 1 0
vn 0 1 0
vn 0 1 0
vn -1 0 0
vn -1 0 0
vn -1 0 0
vn -1 0 0
vn 0 0 -1
vn 0 0 -1
vn 0 0 -1
vn 0 0 -1
vn 0 0 1
vn 0 0 1
vn 0 0 1
vn 0 0 1
f 18/18/18 17/17/17 20/20/20 19/19/19
f 24/24/24 21/21/21 22/22/22 23/23/23
f 1/1/1 3/3/3 4/4/4 2/2/2
f 5/5/5 7/7/7 8/8/8 6/6/6
f 9/9/9 11/11/11 12/12/12 10/10/10
f 13/13/13 15/15/15 16/16/16 14/14/14
v -185.62532043457031 42.024402618408203 0
v -185.62532043457031 42.024402618408203 0.20000000298023224
v -117.84918212890625 42.024402618408203 0
v -117.84918212890625 42.024402618408203 0.20000000298023224
v -117.84918212890625 42.024402618408203 0
v -117.84918212890625 42.024402618408203 0.20000000298023224
v -117.84918212890625 81.1087646484375 0
v -117.84918212890625 81.1087646484375 0.20000000298023224
v -117.84918212890625 81.1087646484375 0
v -117.84918212890625 81.1087646484375 0.20000000298023224
v -185.62532043457031 81.1087646484375 0
v -185.62532043457031 81.1087646484375 0.20000000298023224
v -185.62532043457031 81.1087646484375 0
v -185.62532043457031 81.1087646484375 0.20000000298023224
v -185.62532043457031 42.024402618408203 0
v -185.62532043457031 42.024402618408203 0.20000000298023224
v -185.62532043457031 42.024402618408203 0
v -117.84918212890625 42.024402618408203 0
v -117.84918212890625 81.1087646484375 0
v -185.62532043457031 81.1087646484375 0
v -185.62532043457031 42.024402618408203 0.20000000298023224
v -117.84918212890625 42.024402618408203 0.20000000298023224
v -117.84918212890625 81.1087646484375 0.20000000298023224
v -185.62532043457031 81.1087646484375 0.20000000298023224
vt 0 0
vt 0 0.50127577781677246
vt 0.31712436676025391 0
vt 0.31712436676025391 0.50127577781677246
vt 0.31712436676025391 0
vt 0.31712436676025391 0.50127577781677246
vt 0.5 0
vt 0.5 0.50127577781677246
vt 0.5 0
vt 0.5 0.50127577781677246
vt 0.81712436676025391 0
vt 0.81712436676025391 0.50127577781677246
vt 0.81712436676025391 0
vt 0.81712436676025391 0.50127577781677246
vt 1 0
vt 1 0.50127577781677246
vt 0 1
vt 0.31712436676025391 1
vt 0.31712436676025391 0.50127625465393066
vt 0 0.50127625465393066
vt 0.68287563323974609 0.50127625465393066
vt 1 0.50127625465393066
vt 1 1
vt 0.68287563323974609 1
vn 0 -1 0
vn 0 -1 0
vn 0 -1 0
vn 0 -1 0
vn 1 0 0
vn 1 0 0
vn 1 0 0
vn 1 0 0
vn 0 1 0
vn 0 1 0
vn 0 1 0
vn 0 1 0
vn -1 0 0
vn -1 0 0
vn -1 0 0
vn -1 0 0
vn 0 0 -1
vn 0 0 -1
vn 0 0 -1
vn 0 0 -1
vn 0 0 1
vn 0 0 1
vn 0 0 1
vn 0 0 1
f 42/42/42 41/41/41 44/44/44 43/43/43
f 48/48/48 45/45/45 46/46/46 47/47/47
f 25/25/25 27/27/27 28/28/28 26/26/26
f 29/29/29 31/31/31 32/32/32 30/30/30
f 33/33/33 35/35/35 36/36/36 34/34/34
f 37/37/37 39/39/39 40/40/40 38/38/38
